<?xml version="1.0" encoding="utf-8"?>
<!-- Generator: Adobe Illustrator 22.0.1, SVG Export Plug-In . SVG Version: 6.00 Build 0)  -->
<svg version="1.1" id="Layer_1" xmlns="http://www.w3.org/2000/svg" xmlns:xlink="http://www.w3.org/1999/xlink" x="0px" y="0px"
	 viewBox="0 0 157.5 97.6" style="enable-background:new 0 0 157.5 97.6;" xml:space="preserve">
<style type="text/css">
	.st0{fill:#A8112E;}
</style>
<g>
	<path class="st0" d="M132.3,23.9c0.4,0,0.7-0.1,0.9-0.2c0.3-0.1,0.5-0.3,0.7-0.6c0.2-0.2,0.2-0.6,0.2-1c0-0.4-0.1-0.7-0.2-0.9
		c-0.1-0.2-0.3-0.4-0.6-0.5c-0.2-0.1-0.5-0.2-0.8-0.2c-0.1,0-0.3,0-0.4,0h-2.8v3.5h1.8C131.6,23.9,132,23.9,132.3,23.9z M125.7,30.4
		c0.7,0.7,1.6,1.3,2.5,1.7c1,0.4,2,0.6,3.1,0.6c1.1,0,2.2-0.2,3.1-0.6c1-0.4,1.8-1,2.5-1.7c0.7-0.7,1.3-1.6,1.7-2.6
		c0.4-1,0.6-2.1,0.6-3.3c0-1.1-0.2-2.2-0.6-3.2c-0.1-0.3-0.3-0.6-0.5-0.9h-2.7c0.3,0.5,0.4,1.1,0.4,1.8c0,1-0.3,1.8-0.8,2.2
		c-0.6,0.5-1.3,0.8-2.1,0.8l3.2,5h-1.9l-3.1-4.8h-1.8v4.8h-1.7v-9.8h-3.1c-0.2,0.3-0.3,0.6-0.5,0.9c-0.4,1-0.6,2.1-0.6,3.2
		c0,1.2,0.2,2.3,0.6,3.3C124.5,28.8,125,29.6,125.7,30.4z M58,39.6c-2.4,0-3.7,1.9-3.8,3.8h7.8C62.1,41.1,60.7,39.6,58,39.6z
		 M140.1,20.4c0.1,0.1,0.1,0.2,0.2,0.4c0.5,1.2,0.8,2.4,0.8,3.8c0,1.4-0.3,2.7-0.8,3.8c-0.5,1.2-1.2,2.2-2.1,3.1
		c-0.9,0.9-1.9,1.5-3.1,2c-1.2,0.5-2.4,0.7-3.7,0.7c-1.3,0-2.6-0.2-3.7-0.7c-1.2-0.5-2.2-1.2-3.1-2c-0.9-0.9-1.6-1.9-2.1-3.1
		c-0.5-1.2-0.8-2.5-0.8-3.8c0-1.4,0.3-2.6,0.8-3.8c0.1-0.1,0.1-0.2,0.2-0.4H8.6l13.5,57.5c28.3-18.2,55.5-0.7,56.6,0h0c0,0,0,0,0,0
		h0c0,0,0,0,0,0h0c1.1-0.7,28.3-18.2,56.6,0l13.5-57.5H140.1z M45.7,55.2H27.2V36.1h8.3v14h10.1V55.2z M70.5,47.3H54.3
		c0,2.5,2.1,4.4,4.9,4.4c1.7,0,3.2-0.6,4.3-2.1H70c-2.1,4.8-6.2,6.2-11.8,6.2c-7.2,0-12.4-3.9-12.4-10.1c0-6.6,5-10.1,12.4-10.1
		c8.2,0,12.3,5.3,12.3,10.4C70.5,46.4,70.5,46.8,70.5,47.3z M85.5,55.3h-7L68.1,36h9.4l6,11.7l0.2,0.4l0.1-0.4L89.4,36H95L85.5,55.3
		z M103.9,55.2h-8V36h8V55.2z M109.9,38.4l-2.4,2.6h-1l1.1-2.9h-2.2v-3.8h4.5V38.4z M120.4,55.8c-8.5,0-10.1-4.9-10.1-6.2h6.2
		c0,0.7,1,1.6,1.8,1.9c0.7,0.3,1.4,0.3,2.1,0.3c1.7,0,3.2-0.4,3.2-1.4c0-1.2-1.5-1.5-3.1-1.7c-4.4-0.6-10.5-1.4-10.5-6.3
		c0-4.6,5-6.9,10.3-6.9c8.5,0,10.8,4.7,10.8,6.1h-6.3c0-0.4-0.3-1.2-1.2-1.6c-0.6-0.3-1.6-0.6-2.5-0.6c-2.3,0-3.7,0.5-3.7,1.6
		c0,0.9,1.2,1.3,2.9,1.6c4.5,0.8,11.3,1,11.3,6.5C131.6,51.8,129.2,55.8,120.4,55.8z"/>
</g>
</svg>
